<svg xmlns="http://www.w3.org/2000/svg" xmlns:xlink="http://www.w3.org/1999/xlink" width="500" zoomAndPan="magnify" viewBox="0 0 375 374.999991" height="500" preserveAspectRatio="xMidYMid meet" version="1.0"><defs><clipPath id="bde52ccc2b"><path d="M 93.292969 99.304688 L 136.582031 99.304688 L 136.582031 302.105469 L 93.292969 302.105469 Z M 93.292969 99.304688 " clip-rule="nonzero"/></clipPath><clipPath id="8ca64426a1"><path d="M 99 72 L 224 72 L 224 189 L 99 189 Z M 99 72 " clip-rule="nonzero"/></clipPath><clipPath id="8ef96ca580"><path d="M 223.867188 166.183594 L 203.46875 188.875 L 99.699219 95.585938 L 120.097656 72.894531 Z M 223.867188 166.183594 " clip-rule="nonzero"/></clipPath><clipPath id="26f406f297"><path d="M 62 130 L 137 130 L 137 227 L 62 227 Z M 62 130 " clip-rule="nonzero"/></clipPath><clipPath id="c07ee9dd3d"><path d="M 136.722656 226.015625 L 40.25 167.90625 L 62.589844 130.824219 L 159.058594 188.933594 Z M 136.722656 226.015625 " clip-rule="nonzero"/></clipPath><clipPath id="5300de9e18"><path d="M 64.445312 182.476562 L 136.722656 226.015625 L 134.96875 174.421875 L 62.691406 130.882812 Z M 64.445312 182.476562 " clip-rule="nonzero"/></clipPath><clipPath id="897c7e2d12"><path d="M 76 88 L 154 88 L 154 126 L 76 126 Z M 76 88 " clip-rule="nonzero"/></clipPath><clipPath id="e8e7c65558"><path d="M 153.761719 107.589844 L 92.058594 138.589844 L 75.992188 106.613281 L 137.699219 75.613281 Z M 153.761719 107.589844 " clip-rule="nonzero"/></clipPath><clipPath id="05ac2a84d2"><path d="M 117.300781 125.910156 L 153.761719 107.589844 L 112.566406 88.242188 L 76.101562 106.558594 Z M 117.300781 125.910156 " clip-rule="nonzero"/></clipPath><clipPath id="8c417cdb48"><path d="M 238.417969 72.890625 L 281.707031 72.890625 L 281.707031 275.6875 L 238.417969 275.6875 Z M 238.417969 72.890625 " clip-rule="nonzero"/></clipPath><clipPath id="4595ca4a18"><path d="M 151 186 L 276 186 L 276 303 L 151 303 Z M 151 186 " clip-rule="nonzero"/></clipPath><clipPath id="ab66652d4d"><path d="M 151.125 208.8125 L 171.523438 186.121094 L 275.292969 279.410156 L 254.894531 302.101562 Z M 151.125 208.8125 " clip-rule="nonzero"/></clipPath><clipPath id="8314de4cd9"><path d="M 238 148 L 313 148 L 313 245 L 238 245 Z M 238 148 " clip-rule="nonzero"/></clipPath><clipPath id="0f3e6dfc8e"><path d="M 238.277344 148.984375 L 334.75 207.09375 L 312.410156 244.175781 L 215.941406 186.066406 Z M 238.277344 148.984375 " clip-rule="nonzero"/></clipPath><clipPath id="ee8604d9e6"><path d="M 310.554688 192.519531 L 238.277344 148.984375 L 240.03125 200.578125 L 312.308594 244.113281 Z M 310.554688 192.519531 " clip-rule="nonzero"/></clipPath><clipPath id="e099ee6f3a"><path d="M 221 249 L 299 249 L 299 287 L 221 287 Z M 221 249 " clip-rule="nonzero"/></clipPath><clipPath id="9466628f95"><path d="M 221.234375 267.398438 L 282.941406 236.398438 L 299.003906 268.378906 L 237.300781 299.378906 Z M 221.234375 267.398438 " clip-rule="nonzero"/></clipPath><clipPath id="d42b358566"><path d="M 257.699219 249.082031 L 221.234375 267.398438 L 262.429688 286.75 L 298.894531 268.433594 Z M 257.699219 249.082031 " clip-rule="nonzero"/></clipPath></defs><rect x="-37.5" width="450" fill="#ffffff" y="-37.499999" height="449.999989" fill-opacity="1"/><rect x="-37.5" width="450" fill="#000000" y="-37.499999" height="449.999989" fill-opacity="1"/><g clip-path="url(#bde52ccc2b)"><path fill="#115982" d="M 93.292969 99.304688 L 136.582031 99.304688 L 136.582031 302.058594 L 93.292969 302.058594 Z M 93.292969 99.304688 " fill-opacity="1" fill-rule="nonzero"/></g><g clip-path="url(#8ca64426a1)"><g clip-path="url(#8ef96ca580)"><path fill="#115982" d="M 223.867188 166.183594 L 203.46875 188.875 L 99.679688 95.566406 L 120.078125 72.878906 Z M 223.867188 166.183594 " fill-opacity="1" fill-rule="nonzero"/></g></g><g clip-path="url(#26f406f297)"><g clip-path="url(#c07ee9dd3d)"><g clip-path="url(#5300de9e18)"><path fill="#115982" d="M 136.722656 226.015625 L 40.398438 167.992188 L 62.734375 130.910156 L 159.058594 188.933594 Z M 136.722656 226.015625 " fill-opacity="1" fill-rule="nonzero"/></g></g></g><g clip-path="url(#897c7e2d12)"><g clip-path="url(#e8e7c65558)"><g clip-path="url(#05ac2a84d2)"><path fill="#115982" d="M 153.761719 107.589844 L 92.183594 138.527344 L 76.117188 106.550781 L 137.699219 75.613281 Z M 153.761719 107.589844 " fill-opacity="1" fill-rule="nonzero"/></g></g></g><g clip-path="url(#8c417cdb48)"><path fill="#5ce1e6" d="M 281.707031 275.6875 L 238.417969 275.6875 L 238.417969 72.9375 L 281.707031 72.9375 Z M 281.707031 275.6875 " fill-opacity="1" fill-rule="nonzero"/></g><g clip-path="url(#4595ca4a18)"><g clip-path="url(#ab66652d4d)"><path fill="#5ce1e6" d="M 151.125 208.8125 L 171.523438 186.121094 L 275.3125 279.429688 L 254.914062 302.121094 Z M 151.125 208.8125 " fill-opacity="1" fill-rule="nonzero"/></g></g><g clip-path="url(#8314de4cd9)"><g clip-path="url(#0f3e6dfc8e)"><g clip-path="url(#ee8604d9e6)"><path fill="#5ce1e6" d="M 238.277344 148.984375 L 334.601562 207.007812 L 312.265625 244.089844 L 215.941406 186.066406 Z M 238.277344 148.984375 " fill-opacity="1" fill-rule="nonzero"/></g></g></g><g clip-path="url(#e099ee6f3a)"><g clip-path="url(#9466628f95)"><g clip-path="url(#d42b358566)"><path fill="#5ce1e6" d="M 221.234375 267.398438 L 282.816406 236.460938 L 298.878906 268.441406 L 237.300781 299.378906 Z M 221.234375 267.398438 " fill-opacity="1" fill-rule="nonzero"/></g></g></g></svg>