<svg xmlns="http://www.w3.org/2000/svg" xmlns:xlink="http://www.w3.org/1999/xlink" width="500" zoomAndPan="magnify" viewBox="0 0 375 374.999991" height="500" preserveAspectRatio="xMidYMid meet" version="1.0"><defs><clipPath id="d2cc86b27e"><path d="M 93.292969 99.304688 L 136.582031 99.304688 L 136.582031 302.105469 L 93.292969 302.105469 Z M 93.292969 99.304688 " clip-rule="nonzero"/></clipPath><clipPath id="47d5453d43"><path d="M 99 72 L 224 72 L 224 189 L 99 189 Z M 99 72 " clip-rule="nonzero"/></clipPath><clipPath id="083c05236a"><path d="M 223.867188 166.183594 L 203.46875 188.875 L 99.699219 95.585938 L 120.097656 72.894531 Z M 223.867188 166.183594 " clip-rule="nonzero"/></clipPath><clipPath id="e4caed8492"><path d="M 62 130 L 137 130 L 137 227 L 62 227 Z M 62 130 " clip-rule="nonzero"/></clipPath><clipPath id="8ab7173d97"><path d="M 136.722656 226.015625 L 40.25 167.90625 L 62.589844 130.824219 L 159.058594 188.933594 Z M 136.722656 226.015625 " clip-rule="nonzero"/></clipPath><clipPath id="373c4f88d8"><path d="M 64.445312 182.476562 L 136.722656 226.015625 L 134.96875 174.421875 L 62.691406 130.882812 Z M 64.445312 182.476562 " clip-rule="nonzero"/></clipPath><clipPath id="f49a200d0f"><path d="M 76 88 L 154 88 L 154 126 L 76 126 Z M 76 88 " clip-rule="nonzero"/></clipPath><clipPath id="046fa63e92"><path d="M 153.761719 107.589844 L 92.058594 138.589844 L 75.992188 106.613281 L 137.699219 75.613281 Z M 153.761719 107.589844 " clip-rule="nonzero"/></clipPath><clipPath id="5042a70156"><path d="M 117.300781 125.910156 L 153.761719 107.589844 L 112.566406 88.242188 L 76.101562 106.558594 Z M 117.300781 125.910156 " clip-rule="nonzero"/></clipPath><clipPath id="e19f701e32"><path d="M 238.414062 72.894531 L 281.703125 72.894531 L 281.703125 275.691406 L 238.414062 275.691406 Z M 238.414062 72.894531 " clip-rule="nonzero"/></clipPath><clipPath id="15ae804037"><path d="M 151 186 L 276 186 L 276 303 L 151 303 Z M 151 186 " clip-rule="nonzero"/></clipPath><clipPath id="4841e7e408"><path d="M 151.125 208.816406 L 171.523438 186.125 L 275.296875 279.414062 L 254.898438 302.101562 Z M 151.125 208.816406 " clip-rule="nonzero"/></clipPath><clipPath id="f28de42d8d"><path d="M 238 148 L 313 148 L 313 245 L 238 245 Z M 238 148 " clip-rule="nonzero"/></clipPath><clipPath id="e1711cbc07"><path d="M 238.273438 148.984375 L 334.742188 207.09375 L 312.40625 244.175781 L 215.933594 186.066406 Z M 238.273438 148.984375 " clip-rule="nonzero"/></clipPath><clipPath id="83c686f577"><path d="M 310.546875 192.519531 L 238.273438 148.984375 L 240.027344 200.578125 L 312.300781 244.113281 Z M 310.546875 192.519531 " clip-rule="nonzero"/></clipPath><clipPath id="a0e4de9f57"><path d="M 221 249 L 299 249 L 299 287 L 221 287 Z M 221 249 " clip-rule="nonzero"/></clipPath><clipPath id="a190b1b973"><path d="M 221.230469 267.40625 L 282.9375 236.40625 L 299 268.386719 L 237.296875 299.386719 Z M 221.230469 267.40625 " clip-rule="nonzero"/></clipPath><clipPath id="7ee544636f"><path d="M 257.695312 249.089844 L 221.230469 267.40625 L 262.425781 286.757812 L 298.890625 268.441406 Z M 257.695312 249.089844 " clip-rule="nonzero"/></clipPath></defs><g clip-path="url(#d2cc86b27e)"><path fill="#115982" d="M 93.292969 99.304688 L 136.582031 99.304688 L 136.582031 302.058594 L 93.292969 302.058594 Z M 93.292969 99.304688 " fill-opacity="1" fill-rule="nonzero"/></g><g clip-path="url(#47d5453d43)"><g clip-path="url(#083c05236a)"><path fill="#115982" d="M 223.867188 166.183594 L 203.46875 188.875 L 99.679688 95.566406 L 120.078125 72.878906 Z M 223.867188 166.183594 " fill-opacity="1" fill-rule="nonzero"/></g></g><g clip-path="url(#e4caed8492)"><g clip-path="url(#8ab7173d97)"><g clip-path="url(#373c4f88d8)"><path fill="#115982" d="M 136.722656 226.015625 L 40.398438 167.992188 L 62.734375 130.910156 L 159.058594 188.933594 Z M 136.722656 226.015625 " fill-opacity="1" fill-rule="nonzero"/></g></g></g><g clip-path="url(#f49a200d0f)"><g clip-path="url(#046fa63e92)"><g clip-path="url(#5042a70156)"><path fill="#115982" d="M 153.761719 107.589844 L 92.183594 138.527344 L 76.117188 106.550781 L 137.699219 75.613281 Z M 153.761719 107.589844 " fill-opacity="1" fill-rule="nonzero"/></g></g></g><g clip-path="url(#e19f701e32)"><path fill="#5ce1e6" d="M 281.703125 275.691406 L 238.414062 275.691406 L 238.414062 72.941406 L 281.703125 72.941406 Z M 281.703125 275.691406 " fill-opacity="1" fill-rule="nonzero"/></g><g clip-path="url(#15ae804037)"><g clip-path="url(#4841e7e408)"><path fill="#5ce1e6" d="M 151.125 208.816406 L 171.523438 186.125 L 275.316406 279.429688 L 254.917969 302.121094 Z M 151.125 208.816406 " fill-opacity="1" fill-rule="nonzero"/></g></g><g clip-path="url(#f28de42d8d)"><g clip-path="url(#e1711cbc07)"><g clip-path="url(#83c686f577)"><path fill="#5ce1e6" d="M 238.273438 148.984375 L 334.597656 207.007812 L 312.261719 244.089844 L 215.933594 186.066406 Z M 238.273438 148.984375 " fill-opacity="1" fill-rule="nonzero"/></g></g></g><g clip-path="url(#a0e4de9f57)"><g clip-path="url(#a190b1b973)"><g clip-path="url(#7ee544636f)"><path fill="#5ce1e6" d="M 221.230469 267.40625 L 282.8125 236.46875 L 298.875 268.449219 L 237.296875 299.386719 Z M 221.230469 267.40625 " fill-opacity="1" fill-rule="nonzero"/></g></g></g></svg>